# xmcd
#
# Track frame offsets:
#	150
#	16335
#	28555
#	39207
#	48350
#	60767
#	70837
#	76557
#	87702
#	97237
#	110432
#	123552
#	134962
#	142382
#
# Disc length: 2003 seconds
#
# Revision: 1
# Processed by: cddbd v1.5.1PL0 Copyright (c) Steve Scherf et al.
# Submitted via: audiograbber 1.83.01
#
DISCID=c207d10e
DTITLE=Nice Boys from New York - Countrytime
DYEAR=1990
DGENRE=Country
TTITLE0=When the Train Comes In
TTITLE1=Too Little Too Late
TTITLE2=Ridin' In a Rodeo
TTITLE3=I Wonder What She's Doin' Tonight
TTITLE4=Laid Off From Love
TTITLE5=We Don't Talk About the Harley
TTITLE6=Wish I Was a Jukebox
TTITLE7=That's Where She Goes to Get Kissed
TTITLE8=My Blue Flower
TTITLE9=Jerry Lee Is a Hero to Me
TTITLE10=Closed for Repairs
TTITLE11=Condemned to Lovin' You
TTITLE12=Just the Two of Us
TTITLE13=Angelina
EXTD=
EXTT0=
EXTT1=
EXTT2=
EXTT3=
EXTT4=
EXTT5=
EXTT6=
EXTT7=
EXTT8=
EXTT9=
EXTT10=
EXTT11=
EXTT12=
EXTT13=
PLAYORDER=
